<?xml version="1.0" encoding="UTF-8"?>
<svg width="114px" height="65px" viewBox="0 0 114 65" version="1.1" xmlns="http://www.w3.org/2000/svg" xmlns:xlink="http://www.w3.org/1999/xlink">
    <!-- Generator: Sketch 40 (33762) - http://www.bohemiancoding.com/sketch -->
    <title>cloud</title>
    <desc>Created with Sketch.</desc>
    <defs></defs>
    <g id="Page-1" stroke="none" stroke-width="1" fill="none" fill-rule="evenodd">
        <g id="fluffy-cloud-silhouette" opacity="0.445935236" transform="translate(2.000000, 0.000000)" fill="#97C7FE">
            <path d="M82.1124554,35.027531 C79.6084299,31.9177072 76.4315993,29.9170273 72.5858798,29.0247097 C73.8093042,27.1498734 74.4192933,25.0968238 74.4192933,22.8655608 C74.4192933,19.71134 73.30098,17.0187543 71.0656066,14.786866 C68.8297632,12.5557593 66.1314936,11.439737 62.9707978,11.439737 C60.108674,11.439737 57.6336284,12.3622258 55.5472277,14.2072035 C53.7888488,9.98198263 50.992674,6.56012903 47.1619927,3.94164268 C43.3303716,1.32378164 39.0588816,0.0139131514 34.3478361,0.0139131514 C28.0272277,0.0139131514 22.6302186,2.24611414 18.1577486,6.70942184 C13.6849654,11.1716352 11.4492787,16.5579007 11.4492787,22.8660298 C11.4492787,23.3125012 11.4791985,23.9517246 11.538725,24.7849504 C8.08024044,26.3918412 5.29221129,28.8241414 3.17542077,32.0832581 C1.05878689,35.3404988 0,38.9341563 0,42.8618859 C0,48.366335 1.96076867,53.0752333 5.88120947,56.9874864 C9.80180692,60.9008337 14.5203716,62.857273 20.0362769,62.857273 L68.6969253,62.857273 C73.4369508,62.857273 77.4842769,61.1822233 80.8390601,57.8358759 C84.1933734,54.4885906 85.870765,50.4495558 85.870765,45.7181464 C85.8702951,41.7014665 84.6174208,38.1364169 82.1124554,35.027531 L82.1124554,35.027531 Z" id="Shape"></path>
        </g>
        <g id="cloud-(2)" transform="translate(18.000000, 8.000000)" stroke-width="3" stroke="#FFFFFF" fill-opacity="0.75999999" fill="#97C7FE">
            <g id="Capa_1">
                <path d="M76.0616583,21.1656878 L76.013069,21.1656878 C75.2648903,9.36057319 65.4305047,0.019303351 53.4190251,0.019303351 C42.3310345,0.019303351 33.1086803,7.97344797 31.1554859,18.4690388 C30.9027241,18.4593386 30.6404389,18.4496384 30.3877743,18.4496384 C22.1275862,18.4496384 15.1598746,23.9108377 12.8858934,31.4090741 C12.5360502,31.3800705 12.176489,31.3605732 11.8169279,31.3605732 C5.29623824,31.3605732 0,36.6374691 0,43.1559877 C0,49.6746032 5.28652038,54.9514991 11.80721,54.9514991 L76.0520376,54.9514991 C85.4007241,54.9514991 92.9708464,47.3853616 92.9708464,38.0632981 C92.9707492,28.7415256 85.4103448,21.1656878 76.0616583,21.1656878 L76.0616583,21.1656878 Z" id="Shape"></path>
            </g>
        </g>
    </g>
</svg>